HIERARCHY
ROOT RootJoint
{
    OFFSET   0.000000   0.000000   0.000000
    CHANNELS 6 Xposition Yposition Zposition Xrotation Yrotation Zrotation
    JOINT pelvis_lowerback
    {
        OFFSET   0.000000   0.093605   0.000000
        CHANNELS 3 Xrotation Yrotation Zrotation
        JOINT lowerback_torso
        {
            OFFSET   0.000000   0.100000   0.000000
            CHANNELS 3 Xrotation Yrotation Zrotation
            JOINT torso_head
            {
                OFFSET   0.000000   0.282350   0.000000
                CHANNELS 3 Xrotation Yrotation Zrotation
                End Site
                {
                    OFFSET   0.000000   0.192650   0.000000
                }
            }
            JOINT rTorso_Clavicle
            {
                OFFSET  -0.001000   0.157500   0.000000
                CHANNELS 3 Xrotation Yrotation Zrotation
                JOINT rShoulder
                {
                    OFFSET  -0.117647   0.000000   0.000000
                    CHANNELS 3 Xrotation Yrotation Zrotation
                    JOINT rElbow
                    {
                        OFFSET  -0.245000   0.000000   0.000000
                        CHANNELS 3 Xrotation Yrotation Zrotation
                        JOINT rWrist
                        {
                            OFFSET  -0.240000   0.000000   0.000000
                            CHANNELS 3 Xrotation Yrotation Zrotation
                            End Site
                            {
                                OFFSET  -0.116353  -0.002500   0.000000
                            }
                        }
                    }
                }
            }
            JOINT lTorso_Clavicle
            {
                OFFSET   0.001000   0.157500   0.000000
                CHANNELS 3 Xrotation Yrotation Zrotation
                JOINT lShoulder
                {
                    OFFSET   0.117647   0.000000   0.000000
                    CHANNELS 3 Xrotation Yrotation Zrotation
                    JOINT lElbow
                    {
                        OFFSET   0.245000   0.000000   0.000000
                        CHANNELS 3 Xrotation Yrotation Zrotation
                        JOINT lWrist
                        {
                            OFFSET   0.240000   0.000000   0.000000
                            CHANNELS 3 Xrotation Yrotation Zrotation
                            End Site
                            {
                                OFFSET   0.116353  -0.002500   0.000000
                            }
                        }
                    }
                }
            }
        }
    }
    JOINT rHip
    {
        OFFSET  -0.100000  -0.051395   0.000000
        CHANNELS 3 Xrotation Yrotation Zrotation
        JOINT rKnee
        {
            OFFSET   0.000000  -0.410000   0.000000
            CHANNELS 3 Xrotation Yrotation Zrotation
            JOINT rAnkle
            {
                OFFSET   0.000000  -0.390000   0.000000
                CHANNELS 3 Xrotation Yrotation Zrotation
                JOINT rToeJoint
                {
                    OFFSET   0.000000  -0.050000   0.130000
                    CHANNELS 3 Xrotation Yrotation Zrotation
                    End Site
                    {
                        OFFSET  -0.010000   0.002000   0.060000
                    }
                }
            }
        }
    }
    JOINT lHip
    {
        OFFSET   0.100000  -0.051395   0.000000
        CHANNELS 3 Xrotation Yrotation Zrotation
        JOINT lKnee
        {
            OFFSET   0.000000  -0.410000   0.000000
            CHANNELS 3 Xrotation Yrotation Zrotation
            JOINT lAnkle
            {
                OFFSET   0.000000  -0.390000   0.000000
                CHANNELS 3 Xrotation Yrotation Zrotation
                JOINT lToeJoint
                {
                    OFFSET   0.000000  -0.050000   0.130000
                    CHANNELS 3 Xrotation Yrotation Zrotation
                    End Site
                    {
                        OFFSET   0.010000   0.002000   0.060000
                    }
                }
            }
        }
    }
}
MOTION
Frames: 5
Frame Time:   0.008333
 -2.247850   0.938759   5.129186  -4.585746   1.898526   2.036780   8.410798   3.901023   0.729169   5.217320  -0.288334   1.207525   2.077434  -0.152552   2.075084   1.729522  -3.108882   0.073857   0.905222   7.453140  54.217127   0.000560  41.304362  -0.004500   0.348381   3.103630  -1.639604   7.012507   5.062529  -1.467082  17.520550  -9.730097 -59.008143  -0.001133 -23.549545   0.001864   4.515661  -2.887774  -4.456779  11.344993  -1.954172  -0.752020   8.156709   0.000394  -0.001722   2.072252  -1.644540  -0.433644 -26.198746   0.001396   0.001166 -20.234470   7.469833   6.351865  40.573911   0.009176   0.017089 -10.179262  16.396569   1.456959  -5.099696   0.001428  -0.000002
 -2.246676   0.938054   5.136181  -4.542113   1.678946   1.999445   8.376384   4.035421   0.801387   5.264016  -0.224692   1.166620   2.048684  -0.201049   2.066496   1.589451  -2.899637   0.011068   0.625117   7.681004  54.172789   0.000456  41.634532  -0.004100   0.334943   3.131947  -1.664616   7.084856   5.275138  -1.491333  17.761069  -9.536717 -59.126972  -0.001253 -23.280435   0.001902   4.513486  -2.887259  -4.472214  11.605019  -2.061001  -0.837364   8.439809   0.000405  -0.002208   1.870333  -1.440428  -0.356069 -26.769499   0.000992   0.001613 -20.365512   7.402934   6.444051  38.073824   0.009637   0.018662 -10.115819  16.387775   1.421005  -5.077921   0.001271  -0.000031
 -2.245499   0.937154   5.143204  -4.485445   1.492854   1.920603   8.331357   4.143267   0.900510   5.299854  -0.171069   1.142697   2.021268  -0.250728   2.061204   1.447963  -2.695747  -0.055535   0.352762   7.901421  54.131108   0.000321  41.948723  -0.003687   0.322094   3.179443  -1.685755   7.161949   5.478344  -1.516075  17.994354  -9.352734 -59.244332  -0.001335 -23.023513   0.001860   4.514150  -2.849959  -4.500953  11.858066  -2.168698  -0.876339   8.727546   0.000419  -0.002553   1.634096  -1.249075  -0.277993 -27.304874   0.000680   0.001880 -20.494461   7.322939   6.575138  35.576440   0.009579   0.019348 -10.061018  16.376640   1.387127  -5.039142   0.001245  -0.000063
 -2.244292   0.936109   5.150273  -4.425486   1.329060   1.820399   8.285093   4.242116   1.006238   5.329649  -0.120531   1.129921   1.994981  -0.297903   2.058352   1.312394  -2.502564  -0.117535   0.094952   8.108941  54.091665   0.000209  42.243397  -0.003318   0.309941   3.236795  -1.712908   7.235782   5.668947  -1.540872  18.214160  -9.180424 -59.354808  -0.001379 -22.782174   0.001785   4.516248  -2.799794  -4.532673  12.120062  -2.272694  -0.893078   9.007331   0.000439  -0.002757   1.375569  -1.069968  -0.195896 -27.813320   0.000438   0.002028 -20.636275   7.240836   6.721695  33.207253   0.008960   0.019279 -10.011438  16.365901   1.355785  -5.002789   0.001204  -0.000082
 -2.243040   0.934962   5.157401  -4.363601   1.178070   1.708450   8.238403   4.336842   1.110729   5.355549  -0.070716   1.122719   1.970236  -0.341944   2.056586   1.185197  -2.320423  -0.172313  -0.146746   8.303583  54.056321   0.000127  42.518523  -0.002991   0.298430   3.294961  -1.741008   7.304870   5.847461  -1.566339  18.419704  -9.019662 -59.458718  -0.001399 -22.556379   0.001685   4.518689  -2.746685  -4.562881  12.390431  -2.371943  -0.900273   9.279530   0.000465  -0.002870   1.111125  -0.901826  -0.107407 -28.317184   0.000245   0.002131 -20.786896   7.160832   6.870341  30.986897   0.007966   0.018774  -9.965795  16.355822   1.326733  -4.971243   0.001137  -0.000091
